<svg width="40" height="40" viewBox="0 0 40 40" fill="none" xmlns="http://www.w3.org/2000/svg">
<rect width="40" height="40" rx="20" fill="white"/>
<path d="M24.9084 26.41C24.9084 25.45 24.6784 24.63 24.2184 23.95C23.7784 23.27 23.1984 22.74 22.4784 22.36C21.7784 21.98 20.9984 21.64 20.1384 21.34C19.2784 21.04 18.4184 20.74 17.5584 20.44C16.6984 20.12 15.9084 19.75 15.1884 19.33C14.4884 18.89 13.9084 18.29 13.4484 17.53C13.0084 16.77 12.7884 15.85 12.7884 14.77C12.7884 12.91 13.4684 11.45 14.8284 10.39C16.2084 9.33 17.9684 8.8 20.1084 8.8C22.2684 8.8 23.9884 9.29 25.2684 10.27C26.5484 11.25 27.1884 12.32 27.1884 13.48C27.1884 14.28 27.0284 14.88 26.7084 15.28C26.4084 15.66 26.0484 15.85 25.6284 15.85C24.8484 15.85 24.3484 15.7 24.1284 15.4L24.0384 15.25C24.2384 14.99 24.3384 14.49 24.3384 13.75C24.3384 12.61 23.8584 11.72 22.8984 11.08C21.9384 10.42 20.8184 10.09 19.5384 10.09C18.2784 10.09 17.2784 10.43 16.5384 11.11C15.7984 11.79 15.4284 12.62 15.4284 13.6C15.4284 14.58 15.6484 15.4 16.0884 16.06C16.5484 16.7 17.1384 17.2 17.8584 17.56C18.5784 17.92 19.3684 18.24 20.2284 18.52C21.1084 18.8 21.9784 19.11 22.8384 19.45C23.7184 19.77 24.5184 20.17 25.2384 20.65C25.9584 21.11 26.5384 21.77 26.9784 22.63C27.4384 23.49 27.6684 24.53 27.6684 25.75C27.6684 27.89 26.9084 29.53 25.3884 30.67C23.8684 31.81 21.9584 32.38 19.6584 32.38C17.3784 32.38 15.3884 31.8 13.6884 30.64C12.0084 29.46 11.1684 27.99 11.1684 26.23C11.1684 25.41 11.3284 24.77 11.6484 24.31C11.9684 23.83 12.3484 23.59 12.7884 23.59C13.5684 23.59 14.0684 23.72 14.2884 23.98L14.3784 24.13C14.1984 24.63 14.1084 25.24 14.1084 25.96C14.1084 27.32 14.6584 28.51 15.7584 29.53C16.8784 30.55 18.3384 31.06 20.1384 31.06C21.4384 31.06 22.5584 30.61 23.4984 29.71C24.4384 28.79 24.9084 27.69 24.9084 26.41Z" fill="black"/>
</svg>
